<?xml version="1.0" encoding="UTF-8" standalone="no"?>
<!-- Created with Inkscape (http://www.inkscape.org/) -->

<svg
   xmlns:dc="http://purl.org/dc/elements/1.1/"
   xmlns:cc="http://creativecommons.org/ns#"
   xmlns:rdf="http://www.w3.org/1999/02/22-rdf-syntax-ns#"
   xmlns:svg="http://www.w3.org/2000/svg"
   xmlns="http://www.w3.org/2000/svg"
   xmlns:sodipodi="http://sodipodi.sourceforge.net/DTD/sodipodi-0.dtd"
   xmlns:inkscape="http://www.inkscape.org/namespaces/inkscape"
   width="320"
   height="330"
   id="svg2"
   version="1.1"
   inkscape:version="0.48.4 r9939"
   sodipodi:docname="logo.svg">
  <defs
     id="defs4" />
  <sodipodi:namedview
     id="base"
     pagecolor="#ffffff"
     bordercolor="#666666"
     borderopacity="1.0"
     inkscape:pageopacity="0.0"
     inkscape:pageshadow="2"
     inkscape:zoom="0.76543687"
     inkscape:cx="519.60861"
     inkscape:cy="401.24396"
     inkscape:document-units="px"
     inkscape:current-layer="layer1"
     showgrid="false"
     inkscape:window-width="1680"
     inkscape:window-height="1006"
     inkscape:window-x="0"
     inkscape:window-y="0"
     inkscape:window-maximized="1"
     inkscape:showpageshadow="false"
     showborder="true" />
  <metadata
     id="metadata7">
    <rdf:RDF>
      <cc:Work
         rdf:about="">
        <dc:format>image/svg+xml</dc:format>
        <dc:type
           rdf:resource="http://purl.org/dc/dcmitype/StillImage" />
        <dc:title></dc:title>
      </cc:Work>
    </rdf:RDF>
  </metadata>
  <g
     inkscape:label="Layer 1"
     inkscape:groupmode="layer"
     id="layer1"
     transform="translate(0,-722.36218)">
    <g
       id="g4073"
       transform="translate(-385.40083,627.09286)">
      <path
         inkscape:connector-curvature="0"
         id="path3179"
         d="m 654.17315,220.44086 c -19.34266,-0.78323 -20.57579,-0.9569 -22.88782,-3.2234 -3.21767,-3.15436 -3.42663,-10.13307 -0.38461,-12.85096 1.13252,-1.01184 2.50348,-1.55309 3.04665,-1.20279 0.54316,0.35031 13.76427,0.89256 29.3802,1.20502 26.84141,0.53704 28.51629,0.68605 30.65628,2.72717 2.8081,2.67843 2.9919,7.97072 0.39316,11.31963 -1.66834,2.14992 -2.83728,2.43438 -10.81511,2.63181 -4.91953,0.12174 -18.14445,-0.15117 -29.38875,-0.60648 z"
         style="fill:#1285c7" />
      <path
         inkscape:connector-curvature="0"
         id="path4006"
         d="m 429.40839,414.93334 c -19.0826,-15.26936 -33.6048,-35.11833 -35.0455,-47.90024 -1.1625,-10.31367 4.3881,-19.1917 15.3827,-24.60432 5.8503,-2.88011 7.67,-3.26444 17.208,-3.63435 14.2543,-0.55281 20.9277,0.98696 43.888,10.1265 18.4907,7.36033 30.2877,10.64455 38.2357,10.64455 5.369,0 8.0422,2.65151 8.0422,7.97695 0,5.54302 -2.9862,7.46067 -10.2233,6.56509 -11.0882,-1.37215 -16.9981,-3.0259 -40.2767,-11.2705 -21.751,-7.70353 -24.8651,-8.5489 -33.2311,-9.02107 -10.5053,-0.59292 -16.8849,0.73748 -20.7606,4.32942 -7.4911,6.9425 1.7562,23.28088 24.9519,44.08563 5.0785,4.55503 8.5398,8.43545 8.5398,9.57392 0,2.78103 -5.3797,7.76056 -8.3842,7.76056 -1.5189,0 -4.8624,-1.85995 -8.3269,-4.63214 z"
         style="fill:#0a77bd" />
      <path
         style="fill:#020303"
         d="m 576.84542,384.89699 c -19.0797,-2.67835 -36.72488,-12.90813 -47.82008,-27.7236 -11.9657,-15.97786 -18.95533,-36.95328 -19.45082,-58.37062 -0.20972,-9.0651 -0.041,-10.09028 1.99757,-12.13966 1.57193,-1.58024 3.32601,-2.20724 5.96559,-2.13242 5.79862,0.16437 6.89623,2.32005 7.61836,14.96232 2.39866,41.99332 25.11798,68.45058 60.19578,70.09951 12.1042,0.56899 19.3909,-1.01491 31.1275,-6.7661 19.1218,-9.37014 27.2712,-26.43275 24.4041,-51.09529 -1.3569,-11.67136 -5.7977,-29.59356 -13.4733,-54.37506 -3.0605,-9.88148 -5.5647,-18.71913 -5.5647,-19.63921 0,-5.16664 8.6106,-8.70575 12.7451,-5.23847 2.3413,1.96344 9.4582,23.84791 15.8842,48.84402 10.843,42.17749 7.6697,67.9694 -10.3999,84.52688 -7.5333,6.90294 -21.0303,13.93233 -32.3392,16.84266 -8.9002,2.29046 -23.0741,3.30223 -30.8902,2.20504 z m -9.7645,-30.11112 c -3.3636,-1.35133 -3.9013,-3.91069 -4.509,-21.46346 -0.3144,-9.07878 -1.2511,-19.02803 -2.1654,-23 -3.3679,-14.63044 -11.6545,-24.50265 -23.44379,-27.92973 -3.0895,-0.89811 -11.91727,-2.0856 -19.61727,-2.63888 -37.20475,-2.67333 -50.48013,-5.19497 -65.0187,-12.35019 -15.68305,-7.71849 -26.60228,-20.97089 -32.57062,-39.53018 -7.33793,-22.8182 -5.71143,-47.97425 4.4969,-69.55102 17.12679,-36.19989 60.85705,-58.02408 112.59242,-56.19079 32.92086,1.16658 57.57046,10.83168 75.14906,29.46587 10.3031,10.92191 15.6175,23.7783 16.0676,38.87018 0.2778,9.31763 -1.3825,11.59451 -8.1316,11.15147 -5.5784,-0.36618 -6.4853,-1.91264 -7.9685,-13.5874 -1.4293,-11.25088 -5.6428,-19.90486 -13.532,-27.7931 -21.3197,-21.31693 -65.176,-28.83325 -103.58456,-17.75284 -18.80051,5.42372 -37.40959,16.93774 -48.33766,29.90802 -11.32706,13.44383 -16.67566,29.06995 -16.64756,48.63643 0.0408,28.38531 12.37464,46.86822 36.98764,55.42778 10.84992,3.77323 19.83354,5.17381 43.71428,6.81523 11.98082,0.82349 24.4833,2.20128 27.7833,3.06175 19.88496,5.185 31.33476,16.79163 36.50426,37.00416 2.0491,8.01163 3.9957,27.58408 3.9957,40.17391 0,6.52371 -0.2907,7.69097 -2.4545,9.85478 -2.5441,2.54408 -5.4176,2.98175 -9.31,1.41801 z M 508.4701,248.53796 c -2.13654,-2.13654 -2.37,-3.65239 -3.60566,-23.41202 -0.72666,-11.62016 -1.0192,-24.74893 -0.65007,-29.17503 1.38126,-16.56259 6.78594,-27.28992 16.13109,-32.01734 4.32822,-2.18951 6.27639,-2.5242 14.5,-2.49111 14.83416,0.0597 27.18716,5.1811 54.66986,22.66556 8.1566,5.18922 17.0801,10.57156 19.8301,11.96078 6.0006,3.0313 17.7184,6.75361 21.2604,6.75361 2.4067,0 2.4568,0.10252 0.8946,1.82874 -2.4533,2.71088 -2.1397,9.01913 0.595,11.97082 l 2.25,2.42846 -4.5,-0.69863 c -15.4383,-2.39683 -27.4858,-7.69943 -49.8865,-21.95715 -24.2804,-15.45417 -33.8935,-19.57224 -45.6887,-19.57224 -6.45428,0 -9.59481,2.27512 -12.09321,8.76075 -1.93211,5.01562 -2.31983,17.98097 -1.44035,48.1657 0.37742,12.9533 0.31184,13.49072 -1.86078,15.25 -3.10595,2.51505 -7.63022,2.31465 -10.40578,-0.4609 z"
         id="path3173"
         inkscape:connector-curvature="0" />
    </g>
  </g>
</svg>
